<svg width="400" height="300" viewBox="0 0 400 300" xmlns="http://www.w3.org/2000/svg">
  <!-- Background -->
  <rect width="400" height="300" fill="#f8fafc" rx="12" />
  
  <!-- Split container -->
  <rect x="100" y="60" width="200" height="180" rx="8" fill="#ffffff" stroke="#94a3b8" stroke-width="2" />
  <line x1="200" y1="60" x2="200" y2="240" stroke="#94a3b8" stroke-width="2" />
  
  <!-- Visualization side (left) -->
  <!-- Network graph -->
  <circle cx="140" cy="120" r="12" fill="#bfdbfe" stroke="#3b82f6" stroke-width="1.5" />
  <circle cx="170" cy="90" r="8" fill="#bfdbfe" stroke="#3b82f6" stroke-width="1.5" />
  <circle cx="180" cy="150" r="10" fill="#bfdbfe" stroke="#3b82f6" stroke-width="1.5" />
  <circle cx="130" cy="180" r="9" fill="#bfdbfe" stroke="#3b82f6" stroke-width="1.5" />
  
  <!-- Connection lines -->
  <line x1="140" y1="120" x2="170" y2="90" stroke="#93c5fd" stroke-width="1.5" />
  <line x1="140" y1="120" x2="180" y2="150" stroke="#93c5fd" stroke-width="1.5" />
  <line x1="140" y1="120" x2="130" y2="180" stroke="#93c5fd" stroke-width="1.5" />
  <line x1="180" y1="150" x2="130" y2="180" stroke="#93c5fd" stroke-width="1.5" />
  
  <!-- Chat side (right) -->
  <!-- AI message bubble -->
  <rect x="220" y="90" width="60" height="40" rx="8" fill="#e0f2fe" />
  <rect x="235" y="105" width="30" height="4" rx="2" fill="#0369a1" />
  <rect x="235" y="115" width="30" height="4" rx="2" fill="#0369a1" />
  
  <!-- User message bubble -->
  <rect x="230" y="140" width="50" height="30" rx="8" fill="#f1f5f9" />
  <rect x="240" y="150" width="30" height="4" rx="2" fill="#334155" />
  <rect x="240" y="160" width="30" height="4" rx="2" fill="#334155" />
  
  <!-- AI message bubble 2 -->
  <rect x="220" y="180" width="60" height="40" rx="8" fill="#e0f2fe" />
  <rect x="235" y="190" width="30" height="4" rx="2" fill="#0369a1" />
  <rect x="235" y="200" width="30" height="4" rx="2" fill="#0369a1" />
  <rect x="235" y="210" width="30" height="4" rx="2" fill="#0369a1" />
</svg> 