<svg width="400" height="300" viewBox="0 0 400 300" xmlns="http://www.w3.org/2000/svg">
  <!-- Background -->
  <rect width="400" height="300" fill="#f8fafc" rx="12" />
  
  <!-- Document icon -->
  <rect x="120" y="60" width="160" height="180" rx="8" fill="#ffffff" stroke="#94a3b8" stroke-width="2" />
  
  <!-- Document fold -->
  <path d="M240 60 L240 100 L280 100 L240 60" fill="#e2e8f0" stroke="#94a3b8" stroke-width="2" />
  
  <!-- Text lines -->
  <rect x="140" y="120" width="120" height="8" rx="4" fill="#0f172a" />
  <rect x="140" y="140" width="100" height="6" rx="3" fill="#64748b" />
  <rect x="140" y="155" width="120" height="6" rx="3" fill="#64748b" />
  <rect x="140" y="170" width="90" height="6" rx="3" fill="#64748b" />
  <rect x="140" y="185" width="110" height="6" rx="3" fill="#64748b" />
  <rect x="140" y="200" width="80" height="6" rx="3" fill="#64748b" />
  
  <!-- Tags -->
  <rect x="140" y="220" width="30" height="10" rx="5" fill="#bfdbfe" />
  <rect x="175" y="220" width="30" height="10" rx="5" fill="#e0f2fe" />
  <rect x="210" y="220" width="30" height="10" rx="5" fill="#f0f9ff" />
</svg> 