<svg width="400" height="300" viewBox="0 0 400 300" xmlns="http://www.w3.org/2000/svg">
  <!-- Background -->
  <rect width="400" height="300" fill="#f8fafc" rx="12" />
  
  <!-- Split container -->
  <rect x="100" y="60" width="200" height="180" rx="8" fill="#ffffff" stroke="#94a3b8" stroke-width="2" />
  <line x1="200" y1="60" x2="200" y2="240" stroke="#94a3b8" stroke-width="2" />
  
  <!-- Text side (left) -->
  <!-- Document icon -->
  <rect x="120" y="80" width="60" height="80" rx="4" fill="#f8fafc" stroke="#94a3b8" stroke-width="1.5" />
  
  <!-- Text lines -->
  <rect x="130" y="90" width="40" height="6" rx="3" fill="#0f172a" />
  <rect x="130" y="105" width="40" height="4" rx="2" fill="#64748b" />
  <rect x="130" y="115" width="40" height="4" rx="2" fill="#64748b" />
  <rect x="130" y="125" width="40" height="4" rx="2" fill="#64748b" />
  <rect x="130" y="135" width="40" height="4" rx="2" fill="#64748b" />
  <rect x="130" y="145" width="40" height="4" rx="2" fill="#64748b" />
  
  <!-- Document icon 2 -->
  <rect x="120" y="170" width="60" height="50" rx="4" fill="#f8fafc" stroke="#94a3b8" stroke-width="1.5" />
  <rect x="130" y="180" width="40" height="4" rx="2" fill="#64748b" />
  <rect x="130" y="190" width="40" height="4" rx="2" fill="#64748b" />
  <rect x="130" y="200" width="40" height="4" rx="2" fill="#64748b" />
  <rect x="130" y="210" width="30" height="4" rx="2" fill="#64748b" />
  
  <!-- Chat side (right) -->
  <!-- AI message bubble -->
  <rect x="220" y="90" width="60" height="40" rx="8" fill="#e0f2fe" />
  <rect x="235" y="105" width="30" height="4" rx="2" fill="#0369a1" />
  <rect x="235" y="115" width="30" height="4" rx="2" fill="#0369a1" />
  
  <!-- User message bubble -->
  <rect x="230" y="140" width="50" height="30" rx="8" fill="#f1f5f9" />
  <rect x="240" y="150" width="30" height="4" rx="2" fill="#334155" />
  <rect x="240" y="160" width="30" height="4" rx="2" fill="#334155" />
  
  <!-- AI message bubble 2 -->
  <rect x="220" y="180" width="60" height="40" rx="8" fill="#e0f2fe" />
  <rect x="235" y="190" width="30" height="4" rx="2" fill="#0369a1" />
  <rect x="235" y="200" width="30" height="4" rx="2" fill="#0369a1" />
  <rect x="235" y="210" width="30" height="4" rx="2" fill="#0369a1" />
</svg> 